<svg width="20" height="20" viewBox="0 0 20 20" fill="none" xmlns="http://www.w3.org/2000/svg">
<path d="M19.4755 14.5677L16.6786 11.9332C15.6797 10.9924 13.9816 11.3688 13.582 12.5919C13.2823 13.4387 12.2834 13.9091 11.3844 13.7209C9.38661 13.2505 6.68957 10.8042 6.19012 8.82838C5.89045 7.98156 6.48979 7.04069 7.3888 6.75846C8.68738 6.38212 9.08694 4.78264 8.08804 3.84177L5.2911 1.20734C4.49198 0.548727 3.29329 0.548727 2.59406 1.20734L0.696144 2.99499C-1.20177 4.87673 0.895925 9.86333 5.59078 14.2854C10.2856 18.7075 15.5798 20.7775 17.5776 18.8957L19.4755 17.108C20.1748 16.3553 20.1748 15.2263 19.4755 14.5677Z" fill="#18191F"/>
</svg>
