<svg width="60" height="60" viewBox="0 0 60 60" fill="none" xmlns="http://www.w3.org/2000/svg">
<g clip-path="url(#clip0)">
<path d="M12.2011 52.74C11.6161 52.74 11.406 52.3159 11.1568 51.8906C10.8954 51.4438 11.0455 50.8695 11.4922 50.608C11.9391 50.3465 12.5133 50.4968 12.7747 50.9434C12.8581 51.0857 12.9264 51.1982 12.9899 51.2976C13.3919 51.9265 12.9309 52.74 12.2011 52.74Z" fill="#E67D03"/>
<path d="M28.6315 59.9971H25.3096C21.0141 59.9971 16.9525 58.3475 13.8726 55.3517C13.5015 54.9908 13.4933 54.3972 13.8543 54.0261C14.215 53.6551 14.8085 53.6467 15.1799 54.0078C17.9076 56.6611 21.5052 58.1222 25.3097 58.1222H28.6316C32.8845 58.1222 36.883 56.4678 39.8922 53.4628L57.3598 35.0583C59.0106 33.3063 57.7173 30.9381 55.7419 30.9381C53.3061 30.9381 51.0157 31.8814 49.2879 33.5951L44.224 39.5916C42.7118 41.3898 39.3704 40.3411 39.3704 37.6605V32.6771C39.3704 32.4851 38.9638 34.071 45.5445 9.51313C46.1008 7.43482 44.5308 5.38288 42.3734 5.38288C41.0113 5.38288 39.663 6.23427 39.2017 7.8311L32.7724 30.2592C32.4745 31.299 30.9339 31.0811 30.9339 30.001V5.16025C30.9339 2.22706 27.3826 0.792971 25.3321 2.84034C24.7134 3.45995 24.3722 4.28415 24.3722 5.16025V29.2745C24.3722 30.3658 22.8112 30.5695 22.5293 29.5171L17.0023 8.88754C16.7752 8.04131 16.2323 7.33394 15.4733 6.89571C13.2768 5.62801 10.5503 7.23481 10.5503 9.73353C10.5503 10.3476 10.1167 8.54539 16.3326 31.7421C16.615 32.796 15.1602 33.3969 14.6154 32.4533L7.12325 19.4764C5.70628 17.0239 1.87494 17.9914 1.87494 20.8871C1.87494 21.3767 2.00524 21.8612 2.25201 22.2885L7.51309 31.4012C9.65033 35.1039 10.7801 39.3197 10.7801 43.5931C10.7801 44.9948 10.9793 46.3812 11.3723 47.7137C11.5187 48.2103 11.2349 48.7316 10.7383 48.8781C10.2425 49.0249 9.72052 48.7406 9.57393 48.2441C9.13031 46.7393 8.90534 45.1746 8.90534 43.5932C8.90534 39.6483 7.8625 35.7565 5.88953 32.3386L0.628453 23.226C-0.6867 20.9476 0.146285 18.0937 2.34469 16.8239C4.58141 15.5315 7.4538 16.3006 8.74681 18.5389L12.6789 25.3495L8.85296 11.0714C8.10891 8.30659 9.76762 5.48717 12.4996 4.75706C15.2499 4.0191 18.0751 5.64969 18.8132 8.40185L22.4974 22.1532V5.16002C22.4974 2.33122 24.7836 0.00439453 27.6531 0.00439453C30.4959 0.00439453 32.8087 2.31716 32.8087 5.16002V23.329L37.3974 7.32163C38.0031 5.07589 40.048 3.50799 42.3736 3.50799C45.7701 3.50799 48.2273 6.74116 47.3555 9.99799L41.2453 32.8004V37.6605C41.2453 38.4886 42.2327 38.9018 42.8209 38.3475C46.3487 34.1701 47.8912 32.3407 47.9351 32.2965C50.0201 30.2117 52.7926 29.0634 55.742 29.0634C59.4391 29.0634 61.4908 33.5628 58.7118 36.3572C40.6522 55.3854 41.2422 54.7639 41.2261 54.7803C37.8619 58.1445 33.3889 59.9971 28.6315 59.9971Z" fill="#E67D03"/>
<path d="M25.3099 54.2551C24.7923 54.2551 24.3726 53.8354 24.3726 53.3178C24.3726 45.83 29.9611 39.4392 37.3721 38.452C37.887 38.3845 38.3569 38.7442 38.425 39.2573C38.4935 39.7705 38.1328 40.2419 37.6197 40.3102C31.1364 41.1738 26.2472 46.7659 26.2472 53.3178C26.2473 53.8354 25.8276 54.2551 25.3099 54.2551Z" fill="#E67D03"/>
</g>
<defs>
<clipPath id="clip0">
<rect width="60" height="60" fill="white"/>
</clipPath>
</defs>
</svg>
