<svg width="52" height="50" viewBox="0 0 52 50" fill="none" xmlns="http://www.w3.org/2000/svg">
<path d="M11.3414 26.606C8.12159 26.6362 5.49697 25.4475 3.4676 23.0397C1.4849 20.6316 0.474923 17.4443 0.437671 13.4778C0.400419 9.51128 1.35035 6.30555 3.28748 3.86059C5.27127 1.41518 7.87309 0.177355 11.0929 0.147115C14.3128 0.116874 16.9374 1.30561 18.9668 3.71333C20.9962 6.12104 22.0295 9.30814 22.0667 13.2746C22.104 17.2411 21.1307 20.4471 19.1469 22.8925C17.1631 25.3379 14.5613 26.5757 11.3414 26.606ZM40.9843 0.146395L43.9941 0.118127L10.9958 49.4302L7.98591 49.4585L40.9843 0.146395ZM11.3191 24.2261C13.7923 24.2028 15.7666 23.2276 17.2419 21.3003C18.7167 19.3264 19.4384 16.6595 19.4068 13.2996C19.3753 9.93977 18.6039 7.31023 17.0926 5.411C15.581 3.46511 13.5885 2.50378 11.1153 2.52701C8.68874 2.5498 6.73803 3.54817 5.26317 5.5221C3.78831 7.49604 3.06644 10.1396 3.09755 13.4528C3.12867 16.766 3.90007 19.3955 5.41174 21.3414C6.92341 23.2873 8.89253 24.2488 11.3191 24.2261ZM40.8871 49.4295C37.6672 49.4597 35.0426 48.271 33.0133 45.8633C30.9839 43.4556 29.9506 40.2685 29.9133 36.302C29.8761 32.3355 30.8493 29.1295 32.8331 26.6841C34.8169 24.2387 37.4187 23.0009 40.6386 22.9707C43.8585 22.9404 46.4597 24.1294 48.4424 26.5375C50.4718 28.9452 51.5051 32.1323 51.5424 36.0988C51.5796 40.0653 50.6064 43.2713 48.6226 45.7167C46.6854 48.1616 44.107 49.3992 40.8871 49.4295ZM40.8647 47.0496C43.2913 47.0268 45.242 46.0284 46.7169 44.0545C48.1917 42.0806 48.9136 39.437 48.8825 36.1238C48.8514 32.8106 48.08 30.1811 46.5683 28.2352C45.0566 26.2893 43.0875 25.3278 40.6609 25.3505C38.1877 25.3738 36.2137 26.3724 34.7388 28.3463C33.2635 30.2736 32.5417 32.9171 32.5732 36.277C32.6048 39.6368 33.3764 42.2897 34.8881 44.2356C36.3993 46.1348 38.3915 47.0728 40.8647 47.0496Z" fill="#E67D03"/>
</svg>
