<svg width="60" height="61" viewBox="0 0 60 61" fill="none" xmlns="http://www.w3.org/2000/svg">
<path d="M60 36.1855C60 34.683 59.4025 33.283 58.3725 32.2505C59.54 30.973 60.135 29.2604 59.9725 27.478C59.68 24.3005 56.8174 21.8105 53.4525 21.8105H38.01C38.775 19.4879 40 15.2305 40 11.8105C40 6.38801 35.3925 1.81055 32.5 1.81055C29.905 1.81055 28.0474 3.27305 27.97 3.33305C27.6724 3.57059 27.4999 3.93059 27.4999 4.31051V12.788L20.2975 28.3855L19.9999 28.538V28.0604C19.9999 27.3704 19.4399 26.8104 18.7499 26.8104H6.24996C2.80254 26.8105 0 29.613 0 33.0605V53.0605C0 56.508 2.80254 59.3105 6.24996 59.3105H13.75C16.4524 59.3105 18.7624 57.5855 19.6324 55.178C21.7125 56.248 24.5125 56.8105 26.25 56.8105H49.1975C51.92 56.8105 54.3026 54.9755 54.8625 52.4455C55.15 51.1405 54.9825 49.828 54.4125 48.688C56.2575 47.7605 57.5 45.853 57.5 43.6855C57.5 42.8005 57.2975 41.953 56.915 41.188C58.76 40.258 60 38.353 60 36.1855ZM54.7275 39.2705C54.245 39.328 53.8375 39.6554 53.6825 40.118C53.5301 40.5805 53.6576 41.0879 54.0125 41.423C54.6476 42.0205 55.0001 42.8255 55.0001 43.6855C55.0001 45.263 53.8076 46.588 52.2301 46.7705C51.7477 46.828 51.3401 47.1554 51.1852 47.618C51.0327 48.0805 51.1602 48.5879 51.5152 48.923C52.3377 49.6979 52.6677 50.7854 52.4202 51.9055C52.1127 53.3005 50.7577 54.3105 49.1977 54.3105H26.25C24.22 54.3105 20.815 53.358 19.635 52.1755C19.2775 51.8205 18.7375 51.7155 18.2725 51.9055C17.805 52.098 17.5 52.5555 17.5 53.0605C17.5 55.128 15.8175 56.8105 13.75 56.8105H6.24996C4.18242 56.8105 2.49996 55.128 2.49996 53.0605V33.0605C2.49996 30.9929 4.18242 29.3105 6.24996 29.3105H17.5V30.5605C17.5 30.993 17.725 31.3955 18.0949 31.6255C18.46 31.8455 18.9199 31.868 19.3099 31.678L21.8099 30.428C22.0624 30.3029 22.2649 30.0929 22.3849 29.8355L29.8849 13.5854C29.9599 13.4204 29.9999 13.2404 29.9999 13.0604V4.98797C30.52 4.70051 31.4225 4.31051 32.5 4.31051C33.87 4.31051 37.5 7.71551 37.5 11.8105C37.5 16.2105 35.105 22.553 35.0825 22.6155C34.9376 22.998 34.9875 23.4306 35.22 23.7705C35.455 24.108 35.84 24.3105 36.25 24.3105H53.4525C55.5375 24.3105 57.3075 25.803 57.4825 27.708C57.615 29.133 56.9299 30.4881 55.7025 31.2456C55.32 31.4805 55.0925 31.9056 55.11 32.358C55.1275 32.8105 55.3875 33.2155 55.7875 33.423C56.845 33.9606 57.4999 35.0205 57.4999 36.1855C57.5 37.763 56.3075 39.088 54.7275 39.2705Z" fill="#E67D03"/>
<path d="M18.75 29.3105C18.06 29.3105 17.5 29.8706 17.5 30.5606V53.0606C17.5 53.7506 18.06 54.3106 18.75 54.3106C19.44 54.3106 20.0001 53.7506 20.0001 53.0606V30.5606C20.0001 29.8706 19.44 29.3105 18.75 29.3105Z" fill="#E67D03"/>
</svg>
