<svg width="58" height="36" viewBox="0 0 58 36" fill="none" xmlns="http://www.w3.org/2000/svg">
<path d="M13.3311 15.5197C17.1212 15.5821 20.0045 16.4861 21.9809 18.2316C23.9898 19.9442 25.0077 22.2377 25.0347 25.1122C25.0528 27.0395 24.6116 28.7587 23.7111 30.2699C22.8103 31.7484 21.4492 32.9209 19.6279 33.7874C17.8393 34.6536 15.6711 35.0986 13.1232 35.1226C10.6406 35.1459 8.30122 34.7595 6.10498 33.9634C3.90843 33.1347 2.19926 32.0237 0.977454 30.6304L2.23345 28.7075C3.35573 29.9384 4.86784 30.9369 6.76978 31.7031C8.70439 32.4689 10.815 32.8411 13.1015 32.8197C16.1394 32.7911 18.4687 32.0996 20.0894 30.7449C21.7097 29.3577 22.5089 27.4881 22.4868 25.1362C22.4644 22.7516 21.614 20.8975 19.9355 19.5739C18.2569 18.2503 15.7518 17.6041 12.4199 17.6354L10.264 17.6556L10.247 15.8427L20.2676 2.76303L1.9914 2.93468L1.97023 0.680775L23.4803 0.478757L23.4968 2.24268L13.3311 15.5197ZM43.8261 34.8342C41.2128 34.8587 38.8707 34.1784 36.7996 32.7931C34.7608 31.3748 33.1576 29.3645 31.9897 26.762C30.8546 24.1592 30.2704 21.0939 30.2373 17.5661C30.2042 14.0382 30.7306 10.9625 31.8167 8.33881C32.9354 5.71486 34.5008 3.69107 36.5129 2.26744C38.5573 0.810846 40.8861 0.0702751 43.4993 0.0457323C46.1126 0.0211895 48.4385 0.718043 50.4773 2.13629C52.5484 3.52157 54.1515 5.5156 55.2867 8.11839C56.4545 10.7209 57.055 13.786 57.0881 17.3139C57.1212 20.8417 56.5784 23.9176 55.4597 26.5416C54.3736 29.1652 52.8084 31.2054 50.764 32.6619C48.7519 34.0856 46.4393 34.8097 43.8261 34.8342ZM43.8044 32.5313C45.9603 32.5111 47.8494 31.9053 49.4716 30.714C51.1262 29.4897 52.4002 27.7464 53.2937 25.4839C54.1868 23.1887 54.6187 20.4732 54.5892 17.3373C54.5598 14.2015 54.0771 11.5109 53.1414 9.26559C52.2053 6.98761 50.8987 5.26847 49.2217 4.10817C47.5771 2.9149 45.6769 2.32838 43.521 2.34863C41.3651 2.36888 39.4598 2.99113 37.8052 4.21539C36.183 5.40668 34.9253 7.1499 34.0322 9.44506C33.1387 11.7075 32.7067 14.4067 32.7362 17.5426C32.7656 20.6784 33.2484 23.3854 34.1845 25.6633C35.1203 27.9087 36.4105 29.6279 38.0551 30.8212C39.7321 31.9815 41.6485 32.5515 43.8044 32.5313Z" fill="#E67D03"/>
</svg>
