<svg width="30" height="29" viewBox="0 0 30 29" fill="none" xmlns="http://www.w3.org/2000/svg">
<path d="M29.2133 20.6144L25.0179 16.6944C23.5196 15.2944 20.9724 15.8545 20.373 17.6744C19.9235 18.9345 18.4252 19.6345 17.0766 19.3544C14.0799 18.6544 10.0344 15.0144 9.28518 12.0745C8.83567 10.8144 9.73468 9.41442 11.0832 8.99447C13.0311 8.43447 13.6304 6.05449 12.1321 4.65449L7.93666 0.734509C6.73797 -0.245487 4.93994 -0.245487 3.89109 0.734509L1.04422 3.3945C-1.80266 6.19449 1.34389 13.6145 8.38616 20.1944C15.4284 26.7744 23.3697 29.8544 26.3664 27.0544L29.2133 24.3944C30.2622 23.2744 30.2622 21.5944 29.2133 20.6144Z" fill="#E67D03"/>
</svg>
