<svg width="30" height="30" viewBox="0 0 30 30" fill="none" xmlns="http://www.w3.org/2000/svg">
<path d="M27.3635 2.57373H2.63695C2.23107 2.57373 1.85109 2.67352 1.50732 2.83799L14.9416 16.2723L17.9527 13.3785C17.9527 13.3785 17.9529 13.3782 17.953 13.3781C17.9531 13.378 17.9533 13.3779 17.9533 13.3779L28.4936 2.83822C28.1497 2.67363 27.7695 2.57373 27.3635 2.57373Z" fill="#E67D03"/>
<path d="M29.7363 4.08105L19.8174 13.9995L29.736 23.918C29.9004 23.5743 30.0002 23.1943 30.0002 22.7884V5.21027C30.0002 4.80463 29.9007 4.42471 29.7363 4.08105Z" fill="#E67D03"/>
<path d="M0.264258 4.08057C0.0997852 4.42434 0 4.80432 0 5.2102V22.7883C0 23.194 0.099668 23.574 0.264023 23.9177L10.1829 13.9993L0.264258 4.08057Z" fill="#E67D03"/>
<path d="M18.5745 15.2423L15.563 18.1364C15.3913 18.3081 15.1664 18.3939 14.9416 18.3939C14.7168 18.3939 14.4919 18.3081 14.3202 18.1364L11.4259 15.2422L1.50684 25.1606C1.85066 25.3252 2.23088 25.4251 2.63688 25.4251H27.3634C27.7693 25.4251 28.1493 25.3254 28.4931 25.1609L18.5745 15.2423Z" fill="#E67D03"/>
</svg>
