<svg width="25" height="25" viewBox="0 0 25 25" fill="none" xmlns="http://www.w3.org/2000/svg">
<g clip-path="url(#clip0)">
<path d="M17.1875 -0.000488281H7.8125C3.49844 -0.000488281 0 3.49795 0 7.81201V17.187C0 21.5011 3.49844 24.9995 7.8125 24.9995H17.1875C21.5016 24.9995 25 21.5011 25 17.187V7.81201C25 3.49795 21.5016 -0.000488281 17.1875 -0.000488281ZM22.6562 17.187C22.6562 20.2026 20.2031 22.6558 17.1875 22.6558H7.8125C4.79688 22.6558 2.34375 20.2026 2.34375 17.187V7.81201C2.34375 4.79639 4.79688 2.34326 7.8125 2.34326H17.1875C20.2031 2.34326 22.6562 4.79639 22.6562 7.81201V17.187Z" fill="url(#paint0_linear)"/>
<path d="M12.5 6.24951C9.04844 6.24951 6.25 9.04795 6.25 12.4995C6.25 15.9511 9.04844 18.7495 12.5 18.7495C15.9516 18.7495 18.75 15.9511 18.75 12.4995C18.75 9.04795 15.9516 6.24951 12.5 6.24951ZM12.5 16.4058C10.3469 16.4058 8.59375 14.6526 8.59375 12.4995C8.59375 10.3448 10.3469 8.59326 12.5 8.59326C14.6531 8.59326 16.4062 10.3448 16.4062 12.4995C16.4062 14.6526 14.6531 16.4058 12.5 16.4058Z" fill="url(#paint1_linear)"/>
<path d="M19.2186 6.61338C19.6785 6.61338 20.0514 6.24052 20.0514 5.78057C20.0514 5.32062 19.6785 4.94775 19.2186 4.94775C18.7586 4.94775 18.3857 5.32062 18.3857 5.78057C18.3857 6.24052 18.7586 6.61338 19.2186 6.61338Z" fill="url(#paint2_linear)"/>
</g>
<defs>
<linearGradient id="paint0_linear" x1="2.28851" y1="22.7112" x2="22.7115" y2="2.28787" gradientUnits="userSpaceOnUse">
<stop stop-color="#FFC107"/>
<stop offset="0.507" stop-color="#F44336"/>
<stop offset="0.99" stop-color="#9C27B0"/>
</linearGradient>
<linearGradient id="paint1_linear" x1="8.0807" y1="16.9188" x2="16.9193" y2="8.08021" gradientUnits="userSpaceOnUse">
<stop stop-color="#FFC107"/>
<stop offset="0.507" stop-color="#F44336"/>
<stop offset="0.99" stop-color="#9C27B0"/>
</linearGradient>
<linearGradient id="paint2_linear" x1="18.6297" y1="6.36955" x2="19.8074" y2="5.19174" gradientUnits="userSpaceOnUse">
<stop stop-color="#FFC107"/>
<stop offset="0.507" stop-color="#F44336"/>
<stop offset="0.99" stop-color="#9C27B0"/>
</linearGradient>
<clipPath id="clip0">
<rect width="25" height="25" fill="white" transform="translate(0 -0.000488281)"/>
</clipPath>
</defs>
</svg>
