<svg width="35" height="35" viewBox="0 0 35 35" fill="none" xmlns="http://www.w3.org/2000/svg">
<g clip-path="url(#clip0)">
<path d="M17.5002 -1.00049C11.0673 -1.00049 5.8335 4.23331 5.8335 10.6662C5.8335 12.5974 6.31632 14.5121 7.23418 16.2104L16.8622 33.6235C16.9904 33.8557 17.2346 33.9995 17.5002 33.9995C17.7658 33.9995 18.01 33.8557 18.1382 33.6235L27.7697 16.2047C28.6841 14.5121 29.1669 12.5973 29.1669 10.6661C29.1669 4.23331 23.9331 -1.00049 17.5002 -1.00049ZM17.5002 16.4995C14.2837 16.4995 11.6669 13.8826 11.6669 10.6662C11.6669 7.44976 14.2837 4.83289 17.5002 4.83289C20.7166 4.83289 23.3335 7.44976 23.3335 10.6662C23.3335 13.8826 20.7166 16.4995 17.5002 16.4995Z" fill="#E67D03"/>
</g>
<defs>
<clipPath id="clip0">
<rect width="35" height="35" fill="white" transform="translate(0 -0.000488281)"/>
</clipPath>
</defs>
</svg>
