<svg width="25" height="25" viewBox="0 0 25 25" fill="none" xmlns="http://www.w3.org/2000/svg">
<g clip-path="url(#clip0)">
<path d="M24.12 14.4715C24.8658 8.19335 23.7617 4.22981 21.77 2.4371L21.771 2.43606C18.5565 -0.625402 7.70021 -1.07853 3.85437 2.57356C2.12729 4.36002 1.51895 6.98189 1.45229 10.2277C1.38562 13.4746 1.30645 19.5569 6.97416 21.2069H6.97937L6.97416 23.7267C6.97416 23.7267 6.93562 24.7475 7.58771 24.9527C8.33354 25.1944 8.67104 24.7204 10.9908 21.9496C14.87 22.2861 17.8492 21.5152 18.1877 21.4027C18.971 21.1402 23.4033 20.5538 24.12 14.4715ZM11.3731 20.1767C11.3731 20.1767 8.91791 23.2381 8.15437 24.0329C7.90437 24.2913 7.63041 24.2673 7.63458 23.7548C7.63458 23.4184 7.65333 19.5715 7.65333 19.5715C2.84812 18.1944 3.13145 13.0152 3.18354 10.3058C3.23562 7.59543 3.73145 5.37564 5.19396 3.88085C8.56791 0.717307 18.0856 1.4246 20.5106 3.70377C23.4752 6.33189 22.42 13.7569 22.4262 14.01C21.8169 19.0871 18.2252 19.409 17.5648 19.6288C17.2825 19.7225 14.6627 20.3965 11.3731 20.1767Z" fill="#8E24AA"/>
<path d="M12.7314 4.47559C12.3304 4.47559 12.3304 5.10059 12.7314 5.10579C15.8429 5.12975 18.4054 7.2985 18.4335 11.2766C18.4335 11.6964 19.0481 11.6912 19.0429 11.2714H19.0419C19.0085 6.98496 16.2106 4.49954 12.7314 4.47559Z" fill="#8E24AA"/>
<path d="M16.8243 10.6173C16.8149 11.0318 17.4285 11.0516 17.4337 10.6318C17.4847 8.2683 16.0274 6.32142 13.2889 6.11622C12.8878 6.08705 12.8462 6.71726 13.2462 6.74642C15.6212 6.92663 16.8722 8.54747 16.8243 10.6173Z" fill="#8E24AA"/>
<path d="M16.1681 13.306C15.6535 13.008 15.1296 13.1935 14.9129 13.4862L14.4598 14.0726C14.2296 14.3705 13.7994 14.331 13.7994 14.331C10.6598 13.5007 9.82022 10.2153 9.82022 10.2153C9.82022 10.2153 9.78168 9.77054 10.0692 9.53199L10.6358 9.06324C10.9192 8.83824 11.0983 8.29658 10.8098 7.76428C10.039 6.37158 9.52126 5.89137 9.25772 5.52262C8.98063 5.17574 8.56397 5.09762 8.13063 5.33199H8.12126C7.22022 5.85908 6.23376 6.84553 6.54938 7.86116C7.08793 8.93199 8.07751 12.3455 11.2317 14.9247C12.714 16.1445 15.0598 17.3945 16.0556 17.683L16.065 17.6976C17.0463 18.0247 18.0004 16.9997 18.5098 16.0716V16.0643C18.7358 15.6153 18.6608 15.1903 18.3306 14.9122C17.7452 14.3414 16.8619 13.7112 16.1681 13.306Z" fill="#8E24AA"/>
<path d="M13.7179 8.44142C14.7189 8.49976 15.2044 9.02267 15.2564 10.0966C15.2752 10.5164 15.8846 10.4873 15.8658 10.0675C15.7992 8.66538 15.0679 7.88413 13.7512 7.81121C13.3502 7.78725 13.3127 8.41746 13.7179 8.44142Z" fill="#8E24AA"/>
</g>
<defs>
<clipPath id="clip0">
<rect width="25" height="25" fill="white" transform="translate(0 -0.000488281)"/>
</clipPath>
</defs>
</svg>
